<svg width="27" height="16" viewBox="0 0 27 16" fill="none" xmlns="http://www.w3.org/2000/svg">
<path d="M13.5 16C13.1771 16 12.8648 15.9389 12.5629 15.8168C12.2594 15.6947 12.0067 15.5318 11.8049 15.3282L0.665918 4.0916C0.221972 3.64377 0 3.07379 0 2.38168C0 1.68957 0.221972 1.11959 0.665918 0.671755C1.10986 0.223918 1.67489 0 2.36099 0C3.04708 0 3.61211 0.223918 4.05605 0.671755L13.5 10.1985L22.9439 0.671755C23.3879 0.223918 23.9529 0 24.639 0C25.3251 0 25.8901 0.223918 26.3341 0.671755C26.778 1.11959 27 1.68957 27 2.38168C27 3.07379 26.778 3.64377 26.3341 4.0916L15.1951 15.3282C14.9529 15.5725 14.6906 15.7451 14.4081 15.8461C14.1256 15.9487 13.8229 16 13.5 16Z" fill="#007BFF"/>
</svg>
