<svg width="36" height="33" viewBox="0 0 36 33" fill="none" xmlns="http://www.w3.org/2000/svg">
<path d="M13.3789 3.27344C8.01964 3.27352 3.61649 7.24963 3.61621 12.2637C3.61621 17.2779 8.01947 21.2548 13.3789 21.2549C18.7384 21.2549 23.1416 17.278 23.1416 12.2637C23.1413 7.24958 18.7382 3.27344 13.3789 3.27344ZM23.1416 21.8799L22.9863 21.7324L22.4307 21.2041L22.1162 20.9053L21.7764 21.1729C19.518 22.9525 16.5805 24.0283 13.3789 24.0283C6.22392 24.0282 0.5 18.721 0.5 12.2637C0.500283 5.80656 6.2241 0.500083 13.3789 0.5C20.5338 0.5 26.2575 5.80651 26.2578 12.2637C26.2578 15.164 25.0997 17.8372 23.1621 19.9033L22.8096 20.2793L23.1953 20.6201L23.7715 21.1289L23.9141 21.2549H25.5342L35.2607 30.1875L32.9326 32.3223L23.1416 23.3633V21.8799Z" fill="#191717" stroke="#007BFF"/>
</svg>
