<svg width="53" height="48" viewBox="0 0 53 48" fill="none" xmlns="http://www.w3.org/2000/svg">
<path d="M46.7624 26.35C46.8759 25.6 46.9326 24.825 46.9326 24C46.9326 23.2 46.8759 22.4 46.734 21.65L52.4949 17.7C53.0057 17.35 53.1476 16.675 52.8354 16.175L47.3867 7.875C47.0462 7.325 46.3367 7.15 45.7124 7.325L38.9299 9.725C37.5109 8.775 36.0069 7.975 34.3325 7.375L33.3109 1.025C33.1974 0.425 32.6298 0 31.9487 0H21.0513C20.3702 0 19.831 0.425 19.7175 1.025L18.6959 7.375C17.0215 7.975 15.4891 8.8 14.0985 9.725L7.31602 7.325C6.69169 7.125 5.98222 7.325 5.64168 7.875L0.221355 16.175C-0.119189 16.7 -0.00567507 17.35 0.561898 17.7L6.32277 21.65C6.18087 22.4 6.06736 23.225 6.06736 24C6.06736 24.775 6.12412 25.6 6.26601 26.35L0.505141 30.3C-0.00567503 30.65 -0.147568 31.325 0.164597 31.825L5.6133 40.125C5.95385 40.675 6.66331 40.85 7.28764 40.675L14.0701 38.275C15.4891 39.225 16.9931 40.025 18.6675 40.625L19.6891 46.975C19.831 47.575 20.3702 48 21.0513 48H31.9487C32.6298 48 33.1974 47.575 33.2825 46.975L34.3041 40.625C35.9785 40.025 37.5109 39.225 38.9015 38.275L45.684 40.675C46.3083 40.875 47.0178 40.675 47.3583 40.125L52.807 31.825C53.1476 31.275 53.0057 30.65 52.4665 30.3L46.7624 26.35ZM26.5 33C20.881 33 16.2837 28.95 16.2837 24C16.2837 19.05 20.881 15 26.5 15C32.119 15 36.7163 19.05 36.7163 24C36.7163 28.95 32.119 33 26.5 33Z" fill="#007BFF"/>
</svg>
