<svg width="141" height="41" viewBox="0 0 141 41" fill="none" xmlns="http://www.w3.org/2000/svg">
<g filter="url(#filter0_d_37_1007)">
<path d="M23.992 26.414L28.15 0.709997H33.484L38.524 26.414L42.682 0.709997H45.916L40.078 32H33.736L29.536 10.622L25.252 32H19.204L13.282 3.314C11.77 3.93 10.622 4.868 9.838 6.128C9.082 7.36 8.704 8.9 8.704 10.748C8.704 11.588 8.774 12.288 8.914 12.848C9.054 13.38 9.208 13.828 9.376 14.192C9.544 14.556 9.698 14.836 9.838 15.032C10.006 15.228 10.118 15.382 10.174 15.494C8.494 15.494 7.164 15.102 6.184 14.318C5.204 13.534 4.714 12.302 4.714 10.622C4.714 9.194 5.064 7.864 5.764 6.632C6.464 5.4 7.388 4.336 8.536 3.44C9.712 2.516 11.042 1.802 12.526 1.298C14.038 0.765998 15.592 0.499997 17.188 0.499997C17.496 0.499997 17.79 0.513998 18.07 0.541999C18.378 0.541999 18.672 0.555999 18.952 0.583999L23.992 26.414ZM56.6066 28.724C57.4466 28.724 58.1886 28.612 58.8326 28.388C59.4766 28.164 60.0506 27.87 60.5546 27.506C61.0586 27.114 61.5206 26.666 61.9406 26.162C62.3606 25.63 62.7666 25.07 63.1586 24.482H64.5866C64.1946 25.462 63.7186 26.414 63.1586 27.338C62.6266 28.262 61.9546 29.088 61.1426 29.816C60.3586 30.544 59.4346 31.132 58.3706 31.58C57.3066 32.028 56.0606 32.252 54.6326 32.252C53.4286 32.252 52.3226 32.07 51.3146 31.706C50.3066 31.342 49.4246 30.782 48.6686 30.026C47.9406 29.242 47.3666 28.248 46.9466 27.044C46.5546 25.812 46.3586 24.342 46.3586 22.634C46.3586 21.43 46.4846 20.142 46.7366 18.77C47.0166 17.37 47.4926 16.082 48.1646 14.906C48.8366 13.73 49.7466 12.75 50.8946 11.966C52.0426 11.182 53.4986 10.79 55.2626 10.79C56.6066 10.79 57.6426 11 58.3706 11.42C59.0986 11.84 59.6306 12.33 59.9666 12.89C60.3306 13.45 60.5406 13.996 60.5966 14.528C60.6806 15.06 60.7226 15.438 60.7226 15.662C60.7226 16.922 60.4846 18.028 60.0086 18.98C59.5606 19.932 58.9446 20.744 58.1606 21.416C57.4046 22.06 56.5226 22.564 55.5146 22.928C54.5346 23.264 53.5266 23.46 52.4906 23.516C52.5186 25.392 52.8266 26.736 53.4146 27.548C54.0306 28.332 55.0946 28.724 56.6066 28.724ZM57.4886 15.704C57.4886 14.724 57.3206 14.038 56.9846 13.646C56.6486 13.226 56.2846 13.016 55.8926 13.016C55.4166 13.016 54.9826 13.254 54.5906 13.73C54.1986 14.178 53.8486 14.794 53.5406 15.578C53.2606 16.334 53.0226 17.23 52.8266 18.266C52.6586 19.302 52.5466 20.38 52.4906 21.5C53.1906 21.444 53.8486 21.262 54.4646 20.954C55.0806 20.618 55.6126 20.198 56.0606 19.694C56.5086 19.162 56.8586 18.56 57.1106 17.888C57.3626 17.216 57.4886 16.488 57.4886 15.704ZM63.1498 3.44L69.1978 2.6V12.05C69.9538 11.518 70.5698 11.182 71.0458 11.042C71.5218 10.874 71.9978 10.79 72.4738 10.79C73.4818 10.79 74.3918 11.014 75.2038 11.462C76.0438 11.882 76.7578 12.512 77.3458 13.352C77.9618 14.192 78.4378 15.242 78.7738 16.502C79.1098 17.734 79.2778 19.148 79.2778 20.744C79.2778 21.976 79.1518 23.278 78.8998 24.65C78.6478 25.994 78.1718 27.24 77.4718 28.388C76.7998 29.508 75.8618 30.432 74.6578 31.16C73.4818 31.888 71.9558 32.252 70.0798 32.252C67.6998 32.252 65.9358 31.664 64.7878 30.488C63.6678 29.312 63.1078 27.73 63.1078 25.742L63.1498 3.44ZM74.9518 21.122C74.9518 18.854 74.6298 17.076 73.9858 15.788C73.3418 14.5 72.4738 13.856 71.3818 13.856C71.0458 13.856 70.6538 13.926 70.2058 14.066C69.7578 14.178 69.4218 14.36 69.1978 14.612V25.7C69.1978 26.596 69.3938 27.24 69.7858 27.632C70.1778 27.996 70.6818 28.178 71.2978 28.178C72.0258 28.178 72.6278 27.968 73.1038 27.548C73.5798 27.1 73.9438 26.54 74.1958 25.868C74.4758 25.168 74.6718 24.412 74.7838 23.6C74.8958 22.76 74.9518 21.934 74.9518 21.122ZM81.8119 3.44L87.8599 2.6V12.05C88.6159 11.518 89.2319 11.182 89.7079 11.042C90.1839 10.874 90.6599 10.79 91.1359 10.79C92.1439 10.79 93.0539 11.014 93.8659 11.462C94.7059 11.882 95.4199 12.512 96.0079 13.352C96.6239 14.192 97.0999 15.242 97.4359 16.502C97.7719 17.734 97.9399 19.148 97.9399 20.744C97.9399 21.976 97.8139 23.278 97.5619 24.65C97.3099 25.994 96.8339 27.24 96.1339 28.388C95.4619 29.508 94.5239 30.432 93.3199 31.16C92.1439 31.888 90.6179 32.252 88.7419 32.252C86.3619 32.252 84.5979 31.664 83.4499 30.488C82.3299 29.312 81.7699 27.73 81.7699 25.742L81.8119 3.44ZM93.6139 21.122C93.6139 18.854 93.2919 17.076 92.6479 15.788C92.0039 14.5 91.1359 13.856 90.0439 13.856C89.7079 13.856 89.3159 13.926 88.8679 14.066C88.4199 14.178 88.0839 14.36 87.8599 14.612V25.7C87.8599 26.596 88.0559 27.24 88.4479 27.632C88.8399 27.996 89.3439 28.178 89.9599 28.178C90.6879 28.178 91.2899 27.968 91.7659 27.548C92.2419 27.1 92.6059 26.54 92.8579 25.868C93.1379 25.168 93.3339 24.412 93.4459 23.6C93.5579 22.76 93.6139 21.934 93.6139 21.122ZM110.05 28.724C110.89 28.724 111.632 28.612 112.276 28.388C112.92 28.164 113.494 27.87 113.998 27.506C114.502 27.114 114.964 26.666 115.384 26.162C115.804 25.63 116.21 25.07 116.602 24.482H118.03C117.638 25.462 117.162 26.414 116.602 27.338C116.07 28.262 115.398 29.088 114.586 29.816C113.802 30.544 112.878 31.132 111.814 31.58C110.75 32.028 109.504 32.252 108.076 32.252C106.872 32.252 105.766 32.07 104.758 31.706C103.75 31.342 102.868 30.782 102.112 30.026C101.384 29.242 100.81 28.248 100.39 27.044C99.998 25.812 99.802 24.342 99.802 22.634C99.802 21.43 99.928 20.142 100.18 18.77C100.46 17.37 100.936 16.082 101.608 14.906C102.28 13.73 103.19 12.75 104.338 11.966C105.486 11.182 106.942 10.79 108.706 10.79C110.05 10.79 111.086 11 111.814 11.42C112.542 11.84 113.074 12.33 113.41 12.89C113.774 13.45 113.984 13.996 114.04 14.528C114.124 15.06 114.166 15.438 114.166 15.662C114.166 16.922 113.928 18.028 113.452 18.98C113.004 19.932 112.388 20.744 111.604 21.416C110.848 22.06 109.966 22.564 108.958 22.928C107.978 23.264 106.97 23.46 105.934 23.516C105.962 25.392 106.27 26.736 106.858 27.548C107.474 28.332 108.538 28.724 110.05 28.724ZM110.932 15.704C110.932 14.724 110.764 14.038 110.428 13.646C110.092 13.226 109.728 13.016 109.336 13.016C108.86 13.016 108.426 13.254 108.034 13.73C107.642 14.178 107.292 14.794 106.984 15.578C106.704 16.334 106.466 17.23 106.27 18.266C106.102 19.302 105.99 20.38 105.934 21.5C106.634 21.444 107.292 21.262 107.908 20.954C108.524 20.618 109.056 20.198 109.504 19.694C109.952 19.162 110.302 18.56 110.554 17.888C110.806 17.216 110.932 16.488 110.932 15.704ZM133.897 2.6V25.28C133.897 26.456 134.051 27.24 134.359 27.632C134.695 27.996 135.269 28.178 136.081 28.178C136.417 28.178 136.697 28.122 136.921 28.01C136.669 29.578 136.305 30.684 135.829 31.328C135.381 31.944 134.569 32.252 133.393 32.252C131.993 32.252 130.929 31.902 130.201 31.202C129.473 30.502 128.969 29.564 128.689 28.388C128.465 28.864 128.199 29.34 127.891 29.816C127.583 30.264 127.205 30.67 126.757 31.034C126.337 31.398 125.833 31.692 125.245 31.916C124.685 32.14 124.027 32.252 123.271 32.252C122.375 32.252 121.493 32.084 120.625 31.748C119.757 31.412 118.959 30.866 118.231 30.11C117.531 29.354 116.957 28.36 116.509 27.128C116.089 25.868 115.879 24.328 115.879 22.508C115.879 21.22 116.019 19.89 116.299 18.518C116.607 17.146 117.069 15.886 117.685 14.738C118.329 13.59 119.155 12.652 120.163 11.924C121.199 11.168 122.445 10.79 123.901 10.79C124.237 10.79 124.601 10.818 124.993 10.874C125.385 10.902 125.763 11 126.127 11.168C126.491 11.308 126.827 11.532 127.135 11.84C127.443 12.12 127.681 12.512 127.849 13.016V3.44L133.897 2.6ZM125.791 13.394C125.119 13.394 124.531 13.688 124.027 14.276C123.551 14.836 123.159 15.55 122.851 16.418C122.571 17.258 122.361 18.196 122.221 19.232C122.081 20.24 122.011 21.206 122.011 22.13C122.011 23.614 122.123 24.776 122.347 25.616C122.571 26.428 122.837 27.03 123.145 27.422C123.481 27.786 123.831 28.01 124.195 28.094C124.559 28.15 124.867 28.178 125.119 28.178C125.427 28.178 125.735 28.108 126.043 27.968C126.379 27.8 126.673 27.562 126.925 27.254C127.205 26.946 127.429 26.568 127.597 26.12C127.765 25.672 127.849 25.14 127.849 24.524V14.99C127.793 14.878 127.723 14.738 127.639 14.57C127.555 14.374 127.429 14.192 127.261 14.024C127.093 13.856 126.883 13.716 126.631 13.604C126.407 13.464 126.127 13.394 125.791 13.394Z" fill="#007BFF"/>
</g>
<defs>
<filter id="filter0_d_37_1007" x="0.713989" y="0.5" width="140.207" height="39.752" filterUnits="userSpaceOnUse" color-interpolation-filters="sRGB">
<feFlood flood-opacity="0" result="BackgroundImageFix"/>
<feColorMatrix in="SourceAlpha" type="matrix" values="0 0 0 0 0 0 0 0 0 0 0 0 0 0 0 0 0 0 127 0" result="hardAlpha"/>
<feOffset dy="4"/>
<feGaussianBlur stdDeviation="2"/>
<feComposite in2="hardAlpha" operator="out"/>
<feColorMatrix type="matrix" values="0 0 0 0 0 0 0 0 0 0 0 0 0 0 0 0 0 0 0.25 0"/>
<feBlend mode="normal" in2="BackgroundImageFix" result="effect1_dropShadow_37_1007"/>
<feBlend mode="normal" in="SourceGraphic" in2="effect1_dropShadow_37_1007" result="shape"/>
</filter>
</defs>
</svg>
